<svg version="1.1" id="Layer_1" xmlns="http://www.w3.org/2000/svg" xmlns:xlink="http://www.w3.org/1999/xlink" x="0px" y="0px"
	 width="100%" viewBox="0 0 459 137" enable-background="new 0 0 459 137" xml:space="preserve">
<path fill="#000000" opacity="1.000000" stroke="none" 
	d="
M333.000000,138.000000 
	C222.046341,138.000000 111.592697,138.000000 1.069522,138.000000 
	C1.069522,92.398926 1.069522,46.797718 1.069522,1.098253 
	C153.999969,1.098253 306.999969,1.098253 459.973358,1.098253 
	C459.973358,46.740513 459.973358,92.370270 459.973358,138.000000 
	C417.797821,138.000000 375.648895,138.000000 333.000000,138.000000 
M162.982422,59.019829 
	C162.982422,59.019829 162.901321,59.058506 162.983780,59.850605 
	C163.283203,66.251320 163.582611,72.652031 163.981262,79.820747 
	C164.977036,87.269333 171.879791,89.917503 183.247818,87.485275 
	C183.112747,85.026176 182.981476,82.636055 182.836090,79.989212 
	C180.919098,79.989212 178.972244,80.553032 177.734741,79.856514 
	C175.897476,78.822418 173.409897,77.020592 173.226929,75.326523 
	C172.648804,69.973930 173.013580,64.519493 173.013580,59.166489 
	C174.694550,59.027634 175.848801,58.932289 177.885330,58.987019 
	C179.473145,58.987019 181.060944,58.987019 182.703033,58.987019 
	C182.703033,56.428173 182.703033,54.242756 182.703033,51.942753 
	C180.934647,52.024960 179.468781,52.093102 177.188278,52.003918 
	C175.898972,52.003918 174.609665,52.003918 173.389740,52.003918 
	C173.192139,48.796074 173.013214,45.891369 172.930664,42.456005 
	C172.626770,42.358479 172.322861,42.260948 171.169159,42.005936 
	C169.445023,42.057632 167.720901,42.109325 165.133163,42.011772 
	C164.423553,42.578846 163.152878,43.101231 163.103531,43.720898 
	C162.911682,46.129436 163.107727,48.568871 162.948318,51.537579 
	C162.631165,51.744656 162.314026,51.951729 161.119171,52.010487 
	C159.759918,52.089527 158.400650,52.168571 157.286377,52.233368 
	C157.286377,54.812550 157.286377,56.869083 157.286377,59.099762 
	C159.363388,59.099762 161.152390,59.099762 162.982422,59.019829 
M55.991180,86.971680 
	C55.991180,86.971680 55.939659,86.897072 55.016964,86.994881 
	C49.841618,86.994881 44.666271,86.994881 39.182224,86.994881 
	C39.857719,86.103638 40.211357,85.637047 40.564995,85.170456 
	C39.234840,84.782463 37.865543,84.026367 36.591057,84.161888 
	C35.954571,84.229584 35.491364,85.926826 34.029949,86.988037 
	C29.139553,87.323639 24.184950,87.276985 19.373920,88.085091 
	C12.287843,89.275345 8.128571,95.865112 9.026019,103.901993 
	C9.655124,109.535774 15.461553,115.196136 22.278351,115.096428 
	C40.416698,114.831116 58.561588,114.971611 76.703690,115.019554 
	C87.447868,115.047943 98.894745,104.546143 99.862465,92.615639 
	C99.613953,88.392654 99.365448,84.169678 99.018692,79.133507 
	C99.030090,69.277199 87.674713,57.585590 76.628258,57.144196 
	C73.775749,57.144196 70.923233,57.144196 67.460579,57.144196 
	C69.119545,61.238750 70.500229,64.646461 71.980255,68.829849 
	C71.946198,69.870277 71.912140,70.910706 71.238350,72.240158 
	C71.212273,73.158936 71.186195,74.077705 71.000328,75.421844 
	C71.000328,75.421844 70.956650,75.874115 70.445030,76.051704 
	C70.350037,76.360771 70.255035,76.669846 69.959625,77.521103 
	C69.625305,77.972176 69.290993,78.423241 68.444977,79.051590 
	C68.349777,79.360634 68.254570,79.669685 67.906242,80.597099 
	C66.599655,81.784882 65.293060,82.972672 63.448669,84.070496 
	C63.258671,84.367706 63.068672,84.664909 62.425110,85.008934 
	C62.425110,85.008934 61.996819,85.165382 61.300327,85.010849 
	C60.712032,85.883240 57.212605,83.113426 58.343487,86.985161 
	C57.936665,86.975143 57.529846,86.965126 56.936359,86.427963 
	C56.592918,86.598808 56.249481,86.769653 55.991180,86.971680 
M192.879456,87.994034 
	C195.502914,87.994034 198.126389,87.994034 200.007263,87.994034 
	C200.007263,82.649254 200.006973,77.724182 200.007324,72.799118 
	C200.007980,63.187794 202.436478,60.446560 211.687134,59.720646 
	C211.687134,57.170948 211.687134,54.625980 211.687134,50.960732 
	C207.061691,52.328758 203.037872,53.518845 199.164551,54.664429 
	C199.184128,54.491123 199.317047,53.314648 199.468826,51.971130 
	C197.961151,52.037323 196.478760,52.102406 194.107834,52.014053 
	C192.840668,52.014053 191.573486,52.014053 190.005981,52.014053 
	C190.005981,63.611626 189.975861,74.844612 190.090744,86.076118 
	C190.096786,86.666771 191.332916,87.244827 192.879456,87.994034 
M318.860687,57.988235 
	C324.733521,58.188057 321.075409,54.261066 321.874268,51.945095 
	C320.279816,52.034103 319.141327,52.097660 317.117279,52.004768 
	C315.512848,52.004768 313.908417,52.004768 311.928223,52.004768 
	C311.928223,48.469902 311.928223,45.369099 311.928223,42.188892 
	C309.108276,42.188892 306.677368,42.188892 304.193024,42.188892 
	C303.825409,45.428661 303.482178,48.453754 303.099426,51.826767 
	C302.916840,51.855743 301.956940,52.008072 300.190063,52.011711 
	C297.879028,51.855793 295.583527,52.094574 296.133423,55.152256 
	C296.329315,56.241657 297.935394,57.279671 299.125488,57.913616 
	C299.860504,58.305168 301.025116,57.890266 302.863007,58.012363 
	C303.239136,59.091335 303.895966,60.158535 303.941803,61.251362 
	C304.119965,65.497543 304.104034,69.751862 304.011688,74.817444 
	C304.324982,76.582436 304.638306,78.347427 304.989258,80.868202 
	C305.870758,86.636047 309.743073,88.296814 315.162140,88.692924 
	C315.792206,88.501389 316.422302,88.309860 317.703827,88.017227 
	C318.136871,87.958420 318.569946,87.899605 319.836639,87.989166 
	C324.609863,87.234489 320.147827,82.894295 322.264374,80.720131 
	C321.177521,81.202087 320.090698,81.684036 318.241486,82.006348 
	C316.165710,80.538818 312.482086,79.247032 312.299042,77.572609 
	C311.595703,71.138168 312.014160,64.581116 312.014160,58.134712 
	C314.400391,58.016666 316.201630,57.927563 318.860687,57.988235 
M255.138077,52.012642 
	C253.884033,52.012642 252.630005,52.012642 251.378052,52.012642 
	C250.961014,54.408798 250.598068,56.494129 250.190002,58.838779 
	C251.516541,58.838779 252.756897,58.838779 254.874863,58.995739 
	C255.581375,60.085072 256.851532,61.149887 256.900177,62.267849 
	C257.157166,68.175537 257.106567,74.096596 257.070679,80.550491 
	C257.367279,80.742012 257.663879,80.933540 258.002411,81.582085 
	C258.002411,81.582085 258.160980,82.012756 258.069427,82.550903 
	C258.366089,82.743271 258.662750,82.935638 259.001617,83.583557 
	C259.001617,83.583557 259.160248,84.012665 259.069061,84.551018 
	C259.365814,84.743439 259.662537,84.935860 260.068390,85.596008 
	C260.252930,85.898186 260.522217,86.047821 261.167603,86.689514 
	C262.444061,87.071838 263.720490,87.454163 265.725159,87.993462 
	C266.467590,88.035904 267.209991,88.078346 268.250275,88.770096 
	C269.517548,88.552460 270.784821,88.334831 272.788879,88.016869 
	C273.526886,87.957390 274.264862,87.897911 275.714874,87.985092 
	C276.089508,87.324394 276.464111,86.663704 276.994965,85.122276 
	C276.994965,83.513359 276.994965,81.904449 276.994965,79.990135 
	C274.777893,79.990135 272.758728,80.499657 271.229858,79.851913 
	C269.584137,79.154655 267.319702,77.462524 267.201599,76.047806 
	C266.737152,70.484894 267.011414,64.860313 267.011414,58.889427 
	C270.593658,58.889427 273.673431,58.889427 276.763062,58.889427 
	C276.763062,56.429863 276.763062,54.356987 276.763062,51.967964 
	C273.432343,51.967964 270.336700,51.967964 267.421326,51.967964 
	C267.211121,48.527798 267.021118,45.418301 266.823792,42.188774 
	C263.504364,42.188774 260.411957,42.188774 257.339935,42.188774 
	C256.874664,45.645321 256.435883,48.904919 255.138077,52.012642 
M409.455261,52.067940 
	C409.357483,52.372505 409.259705,52.677074 409.004913,53.909615 
	C409.058044,64.274223 409.111206,74.638832 408.896851,85.633324 
	C408.274872,88.696373 410.376007,87.929207 412.788971,87.994453 
	C413.860291,87.942360 414.931641,87.890266 416.881836,87.988182 
	C417.587708,87.069092 418.885590,86.161728 418.904053,85.229012 
	C419.030823,78.823303 418.889862,72.412292 418.992462,65.388420 
	C419.008820,64.965843 419.025177,64.543266 419.553680,63.946640 
	C419.647919,63.638100 419.742188,63.329559 420.147949,62.324112 
	C423.026184,61.639683 426.692566,59.562336 428.579346,60.629997 
	C430.842865,61.910805 432.519104,65.782639 432.801697,68.692520 
	C433.418488,75.043671 432.992371,81.496101 432.992371,87.685837 
	C436.723175,87.685837 439.794952,87.685837 443.007538,87.685837 
	C443.007538,80.233681 443.394653,73.072708 442.883881,65.976364 
	C442.482178,60.395775 441.527100,54.424717 435.165009,52.094002 
	C429.286224,49.940327 423.428955,50.064800 418.001923,53.205536 
	C417.002258,52.857792 416.002594,52.510048 414.176758,52.006203 
	C412.780334,52.058132 411.383881,52.110065 409.455261,52.067940 
M153.007233,57.230312 
	C148.883179,51.573677 139.623489,48.821598 133.034729,51.515255 
	C128.886841,53.211025 125.438850,55.511555 124.913002,60.754314 
	C124.370735,66.160706 126.352768,69.475273 131.441940,71.184135 
	C132.371643,71.496315 133.092163,72.431488 133.982803,73.010284 
	C133.982803,73.010284 134.051804,72.936951 133.280411,72.989799 
	C130.346588,74.366661 127.412758,75.743515 123.805008,77.436653 
	C124.165184,78.465424 124.630295,80.271492 125.407310,81.931557 
	C128.983871,89.572807 143.120361,91.180153 149.957626,86.468201 
	C153.669540,83.910095 155.614288,80.091255 154.942230,75.496323 
	C154.375153,71.619255 152.565308,68.499802 148.295883,67.211098 
	C150.867599,64.620972 150.867599,64.620972 146.554138,63.411495 
	C149.158554,62.919262 151.920547,62.397247 154.863831,61.840969 
	C154.222290,60.420536 153.665283,59.187279 153.007233,57.230312 
M378.992249,74.312752 
	C380.660553,73.820694 382.328827,73.328629 384.922455,72.994957 
	C391.175446,72.994957 397.428406,72.994957 404.739594,72.994957 
	C402.826416,67.164665 401.892334,61.627972 399.278625,57.050301 
	C396.176636,51.617416 390.367645,50.461327 384.215240,50.948967 
	C375.495819,51.640064 369.954590,57.511173 368.107086,66.507210 
	C366.240173,75.597717 371.387604,84.929741 379.159332,87.660294 
	C387.511597,90.594818 398.423126,88.663597 403.243927,78.103340 
	C401.542389,77.629211 399.932831,77.243507 398.366425,76.726906 
	C396.737366,76.189636 395.149994,75.525902 393.619263,74.945839 
	C389.371338,81.817017 384.745544,81.754028 378.992249,74.312752 
M218.318298,56.158611 
	C218.065155,56.747219 217.947189,57.468067 217.529175,57.895374 
	C216.785522,58.655533 215.860184,59.237953 215.010849,59.894714 
	C216.121384,60.597450 217.167526,61.451523 218.361038,61.959198 
	C219.492859,62.440628 220.779053,62.559158 222.743607,62.995018 
	C223.780655,65.319626 223.372787,66.228386 220.558197,67.864609 
	C213.701202,71.850830 212.570236,79.982002 218.092148,85.594513 
	C223.152313,90.737686 231.297119,90.216530 238.962616,84.056427 
	C238.801132,85.513397 238.667343,86.720497 238.557434,87.712181 
	C241.587128,87.712181 244.637405,87.712181 247.004272,87.712181 
	C247.004272,79.320366 246.984512,71.206802 247.012024,63.093407 
	C247.027435,58.544197 245.624115,54.863209 240.949112,52.443169 
	C240.639465,52.348389 240.329803,52.253609 239.372375,52.002239 
	C238.931000,51.960648 238.489609,51.919056 237.760147,51.237015 
	C236.841064,51.214474 235.921982,51.191929 234.138992,51.005016 
	C232.091797,51.056820 230.044601,51.108620 227.263947,51.011940 
	C225.567535,51.734131 223.871140,52.456322 221.525330,53.124935 
	C220.669540,54.044605 219.813751,54.964275 218.318298,56.158611 
M332.313324,95.172852 
	C331.905945,96.295135 330.985779,98.303795 331.167023,98.408630 
	C334.687134,100.445023 338.335846,102.259109 342.333069,104.838478 
	C346.247620,104.221169 350.415894,104.242935 354.009155,102.816330 
	C358.028687,101.220482 361.346252,98.183853 361.867828,92.603760 
	C361.867828,79.106789 361.867828,65.609810 361.867828,51.942284 
	C359.949097,52.030357 358.476471,52.097958 356.216614,52.007832 
	C353.936279,51.959202 351.533905,52.359280 349.398254,51.778561 
	C342.752075,49.971359 336.879944,50.711205 331.292908,56.185905 
	C329.915100,59.789585 328.537292,63.393265 327.003052,67.845924 
	C327.055054,69.568222 327.107056,71.290527 327.068909,73.551407 
	C327.366028,73.742966 327.663147,73.934525 327.991455,74.851585 
	C328.047852,75.572052 328.104218,76.292526 328.069763,77.551048 
	C328.366699,77.742401 328.663635,77.933762 329.004456,78.581879 
	C329.004456,78.581879 329.161652,79.012962 329.068115,79.551453 
	C329.364838,79.744804 329.661560,79.938148 329.999420,80.585274 
	C329.999420,80.585274 330.157837,81.012482 330.067902,81.551590 
	C330.365906,81.741531 330.663940,81.931473 331.171692,82.708092 
	C332.503235,83.944870 333.834808,85.181648 335.692444,86.944748 
	C337.034637,87.453827 338.376831,87.962914 339.024109,88.208420 
	C339.024109,89.879562 339.024109,90.988960 338.325806,92.147438 
	C336.549530,93.151939 334.773254,94.156448 332.313324,95.172852 
M92.945366,26.448671 
	C92.637650,26.353252 92.329926,26.257833 91.588425,25.999878 
	C91.588425,25.999878 91.127228,25.956425 90.948753,25.445061 
	C90.639641,25.349554 90.330528,25.254047 89.093170,25.000809 
	C81.078514,24.959892 73.063866,24.918976 64.602600,24.127069 
	C57.532349,24.084402 50.461037,23.955112 43.392368,24.041801 
	C40.574146,24.076365 37.761772,24.588181 34.123981,24.980997 
	C32.748001,25.041542 31.372023,25.102087 29.267290,25.015202 
	C27.808006,25.661156 26.348721,26.307108 24.147913,26.986946 
	C20.413895,30.131355 16.189857,32.855698 13.054422,36.513241 
	C7.605949,42.868984 9.164091,50.919273 8.972266,58.499142 
	C8.697689,69.348999 19.678528,81.913017 31.376060,82.861053 
	C34.535122,82.861053 37.694183,82.861053 42.019524,82.861053 
	C40.630611,80.994934 39.872646,79.976547 39.003555,78.182533 
	C32.526981,66.365631 42.550835,51.963486 54.881268,52.861839 
	C64.300613,53.548100 73.823021,53.306171 83.273392,52.886822 
	C88.457207,52.656799 93.755249,52.056183 97.121414,46.686214 
	C102.057838,38.811218 99.766914,31.482681 92.945366,26.448671 
M49.138149,81.680618 
	C53.750065,83.431747 58.039337,83.273506 62.098690,80.032013 
	C65.548508,77.277252 68.354210,69.341682 66.891525,65.605492 
	C65.223129,61.343861 57.689598,56.543346 53.387363,57.000370 
	C49.016884,57.464642 42.985661,62.165985 42.061501,65.828888 
	C40.297058,72.822227 42.201611,77.270302 49.138149,81.680618 
M292.009064,66.504189 
	C292.009064,61.747185 292.009064,56.990181 292.009064,52.228180 
	C289.434906,52.228180 287.370514,52.228180 285.323212,52.228180 
	C285.323212,64.290337 285.323212,76.118324 285.323212,87.679947 
	C287.725189,87.679947 289.790771,87.679947 292.009216,87.679947 
	C292.009216,80.736053 292.009216,74.119583 292.009064,66.504189 
M290.508026,45.993656 
	C290.654053,44.152214 291.135315,42.238842 290.764038,40.508396 
	C290.634247,39.903625 287.706482,39.072296 287.269318,39.522385 
	C286.157104,40.667583 284.749329,43.098396 285.246429,43.883736 
	C286.097839,45.228745 288.312347,45.710903 290.508026,45.993656 
z"/>
<path fill="#F5F9FA" opacity="1.000000" stroke="none" 
	d="
M65.049210,24.878057 
	C73.063866,24.918976 81.078514,24.959892 89.690765,25.274193 
	C90.527161,25.767591 90.806786,25.903873 91.127228,25.956425 
	C91.127228,25.956425 91.588425,25.999878 91.938324,26.274319 
	C92.525261,26.767546 92.802765,26.904215 93.120712,26.958771 
	C99.766914,31.482681 102.057838,38.811218 97.121414,46.686214 
	C93.755249,52.056183 88.457207,52.656799 83.273392,52.886822 
	C73.823021,53.306171 64.300613,53.548100 54.881268,52.861839 
	C42.550835,51.963486 32.526981,66.365631 38.689240,78.637680 
	C35.900837,80.101379 33.426750,81.109947 30.952660,82.118515 
	C19.678528,81.913017 8.697689,69.348999 8.972266,58.499142 
	C9.164091,50.919273 7.605949,42.868984 13.054422,36.513241 
	C16.189857,32.855698 20.413895,30.131355 24.841940,27.105839 
	C27.933804,28.508064 29.502686,27.998461 29.996042,25.162632 
	C31.372023,25.102087 32.748001,25.041542 34.818764,25.248207 
	C44.317089,25.676451 53.120323,25.876404 61.924583,25.946653 
	C62.963219,25.954941 64.007530,25.251545 65.049210,24.878057 
z"/>
<path fill="#F5F9FA" opacity="1.000000" stroke="none" 
	d="
M63.986473,84.160454 
	C65.293060,82.972672 66.599655,81.784882 68.227066,80.154480 
	C68.768837,79.474014 68.905098,79.194832 68.956673,78.874313 
	C69.290993,78.423241 69.625305,77.972176 70.253967,77.116425 
	C70.769096,76.473824 70.905212,76.194611 70.956650,75.874115 
	C70.956650,75.874115 71.000328,75.421844 71.399155,75.152191 
	C71.824684,73.905403 71.851379,72.928268 71.878082,71.951134 
	C71.912140,70.910706 71.946198,69.870277 72.219421,68.219116 
	C72.193230,63.519279 71.332565,59.149330 77.047348,57.881374 
	C87.674713,57.585590 99.030090,69.277199 98.753960,79.819420 
	C98.697495,84.685547 98.905762,88.865768 99.114029,93.045982 
	C98.894745,104.546143 87.447868,115.047943 76.703690,115.019554 
	C58.561588,114.971611 40.416698,114.831116 22.278351,115.096428 
	C15.461553,115.196136 9.655124,109.535774 9.026019,103.901993 
	C8.128571,95.865112 12.287843,89.275345 19.373920,88.085091 
	C24.184950,87.276985 29.139553,87.323639 34.677841,87.222893 
	C41.786198,87.922806 48.244858,88.421783 54.711754,88.765892 
	C55.086842,88.785858 55.528809,87.549019 55.939659,86.897072 
	C55.939659,86.897072 55.991180,86.971680 56.252975,86.977325 
	C56.717522,86.973686 56.920273,86.964394 57.123024,86.955101 
	C57.529846,86.965126 57.936665,86.975143 58.817459,87.190567 
	C60.193226,86.652443 61.095024,85.908913 61.996819,85.165382 
	C61.996819,85.165382 62.425110,85.008934 62.876411,84.912376 
	C63.624981,84.675461 63.844570,84.457001 63.986473,84.160454 
z"/>
<path fill="#F7FAFA" opacity="1.000000" stroke="none" 
	d="
M330.157837,81.012482 
	C330.157837,81.012482 329.999420,80.585274 329.907837,80.132019 
	C329.676941,79.379272 329.458771,79.157341 329.161652,79.012962 
	C329.161652,79.012962 329.004456,78.581879 328.910339,78.128143 
	C328.675842,77.376488 328.457275,77.156021 328.160583,77.012993 
	C328.104218,76.292526 328.047852,75.572052 327.903748,74.263107 
	C327.675415,73.376236 327.456421,73.155640 327.159058,73.012825 
	C327.107056,71.290527 327.055054,69.568222 327.428528,67.346619 
	C329.221344,63.190895 330.588684,59.534473 331.956024,55.878052 
	C336.879944,50.711205 342.752075,49.971359 349.398254,51.778561 
	C351.533905,52.359280 353.936279,51.959202 356.664764,52.448517 
	C359.878082,55.239338 360.119965,58.316795 360.055573,61.710896 
	C359.889557,70.459679 359.941833,79.214439 360.050323,87.965019 
	C360.071381,89.662491 360.742371,91.351906 361.113556,93.045036 
	C361.346252,98.183853 358.028687,101.220482 354.009155,102.816330 
	C350.415894,104.242935 346.247620,104.221169 342.104706,104.118042 
	C340.530914,102.627518 338.955139,102.089767 337.891571,101.035378 
	C336.089722,99.249016 334.611328,97.136421 332.996979,95.160965 
	C334.773254,94.156448 336.549530,93.151939 338.639160,92.088226 
	C338.952545,92.029007 338.920654,91.933922 339.039520,92.302505 
	C341.837769,96.199692 345.653290,95.652931 348.826385,94.403702 
	C351.768890,93.245247 352.793121,90.270424 350.733124,86.998581 
	C345.288940,86.772438 340.227661,86.595436 335.166351,86.418427 
	C333.834808,85.181648 332.503235,83.944870 330.994019,82.189606 
	C330.674652,81.373779 330.455139,81.154236 330.157837,81.012482 
M342.272095,79.787323 
	C346.021332,80.443527 350.099365,80.515068 351.588715,76.512665 
	C352.838318,73.154747 353.103149,69.106895 352.611145,65.528496 
	C352.229370,62.751698 350.474243,59.853954 346.499420,59.961082 
	C343.117371,60.052231 339.903259,60.126198 338.516418,63.971050 
	C336.598602,69.288010 336.372803,75.448418 342.272095,79.787323 
z"/>
<path fill="#F7FAFA" opacity="1.000000" stroke="none" 
	d="
M227.997406,51.160416 
	C230.044601,51.108620 232.091797,51.056820 234.629333,51.405167 
	C236.095871,51.829361 237.072052,51.853413 238.048233,51.877464 
	C238.489609,51.919056 238.931000,51.960648 239.830032,52.274994 
	C240.524780,52.771065 240.804352,52.907093 241.126404,52.955833 
	C245.624115,54.863209 247.027435,58.544197 247.012024,63.093407 
	C246.984512,71.206802 247.004272,79.320366 247.004272,87.712181 
	C244.637405,87.712181 241.587128,87.712181 238.557434,87.712181 
	C238.667343,86.720497 238.801132,85.513397 238.962616,84.056427 
	C231.297119,90.216530 223.152313,90.737686 218.092148,85.594513 
	C212.570236,79.982002 213.701202,71.850830 220.558197,67.864609 
	C223.372787,66.228386 223.780655,65.319626 222.325378,62.571308 
	C220.924072,60.059715 219.941010,57.971832 218.957962,55.883949 
	C219.813751,54.964275 220.669540,54.044605 222.213135,53.368660 
	C224.599747,52.795063 226.298569,51.977737 227.997406,51.160416 
M229.170166,73.308540 
	C228.348984,73.793861 227.380020,74.136238 226.740540,74.797318 
	C225.728760,75.843285 224.937714,77.102760 224.053253,78.271881 
	C225.464401,79.179550 226.798203,80.694870 228.300522,80.886086 
	C233.798233,81.585815 237.307770,77.695343 236.498703,72.107788 
	C234.315918,72.413490 232.130417,72.719566 229.170166,73.308540 
M227.186264,61.262821 
	C226.521591,62.073662 225.856918,62.884506 225.192245,63.695351 
	C225.332047,64.128021 225.471832,64.560684 225.611633,64.993355 
	C229.560257,64.365906 233.508896,63.738453 237.596878,63.088856 
	C235.595718,58.315174 231.618515,59.840141 227.186264,61.262821 
z"/>
<path fill="#F7FAFA" opacity="1.000000" stroke="none" 
	d="
M378.840027,74.997070 
	C384.745544,81.754028 389.371338,81.817017 393.619263,74.945839 
	C395.149994,75.525902 396.737366,76.189636 398.366425,76.726906 
	C399.932831,77.243507 401.542389,77.629211 403.243927,78.103340 
	C398.423126,88.663597 387.511597,90.594818 379.159332,87.660294 
	C371.387604,84.929741 366.240173,75.597717 368.107086,66.507210 
	C369.954590,57.511173 375.495819,51.640064 384.215240,50.948967 
	C390.367645,50.461327 396.176636,51.617416 399.278625,57.050301 
	C401.892334,61.627972 402.826416,67.164665 404.739594,72.994957 
	C397.428406,72.994957 391.175446,72.994957 384.417908,72.572487 
	C383.035980,70.411949 382.158569,68.673882 381.275391,66.924362 
	C382.267303,66.190216 383.156342,65.532234 384.464478,64.927887 
	C386.572083,64.947540 388.260559,64.913544 390.160828,65.162582 
	C391.517914,64.994057 392.663269,64.542519 393.808624,64.090973 
	C393.166626,63.073914 392.524597,62.056854 391.536804,60.893501 
	C385.996552,57.759121 382.032532,59.444153 378.494873,64.076477 
	C377.811798,67.270401 377.382721,70.386330 377.190491,73.516800 
	C377.162354,73.974731 378.262146,74.501930 378.840027,74.997070 
z"/>
<path fill="#F7FAFB" opacity="1.000000" stroke="none" 
	d="
M133.909241,73.079079 
	C133.092163,72.431488 132.371643,71.496315 131.441940,71.184135 
	C126.352768,69.475273 124.370735,66.160706 124.913002,60.754314 
	C125.438850,55.511555 128.886841,53.211025 133.034729,51.515255 
	C139.623489,48.821598 148.883179,51.573677 152.751633,57.738876 
	C150.688660,60.364647 149.041565,62.771828 145.770401,60.170673 
	C145.160675,59.685825 143.865692,60.062702 142.537598,60.022682 
	C140.307938,59.872818 138.427643,59.742168 135.913269,59.567459 
	C135.532440,60.052216 134.673462,61.145657 133.738358,62.335991 
	C137.388931,63.639660 140.634125,64.798561 144.191925,66.099747 
	C145.708847,66.814224 146.913177,67.386421 148.117493,67.958618 
	C152.565308,68.499802 154.375153,71.619255 154.942230,75.496323 
	C155.614288,80.091255 153.669540,83.910095 149.957626,86.468201 
	C143.120361,91.180153 128.983871,89.572807 125.407310,81.931557 
	C124.630295,80.271492 124.165184,78.465424 123.805008,77.436653 
	C127.412758,75.743515 130.346588,74.366661 133.646896,73.383484 
	C134.156693,78.873909 138.729187,81.893257 143.325714,79.807953 
	C144.054886,79.477150 144.843292,78.418205 144.881729,77.659309 
	C144.922104,76.862061 144.250443,75.471291 143.618912,75.291405 
	C140.430939,74.383377 137.154587,73.785652 133.909241,73.079079 
z"/>
<path fill="#F7FAFB" opacity="1.000000" stroke="none" 
	d="
M419.041565,64.120689 
	C419.025177,64.543266 419.008820,64.965843 418.530701,65.802231 
	C417.712616,67.887070 417.165161,69.543381 417.035156,71.231834 
	C416.609283,76.760986 416.335327,82.301826 416.002991,87.838173 
	C414.931641,87.890266 413.860291,87.942360 412.356415,87.597939 
	C411.004028,86.468765 410.084198,85.736099 409.164368,85.003441 
	C409.111206,74.638832 409.058044,64.274223 409.261169,53.353840 
	C409.738525,52.633633 409.895203,52.421612 409.987457,52.161995 
	C411.383881,52.110065 412.780334,52.058132 414.594666,52.414795 
	C416.041901,53.202805 417.071228,53.582222 418.100586,53.961632 
	C423.428955,50.064800 429.286224,49.940327 435.165009,52.094002 
	C441.527100,54.424717 442.482178,60.395775 442.883881,65.976364 
	C443.394653,73.072708 443.007538,80.233681 443.007538,87.685837 
	C439.794952,87.685837 436.723175,87.685837 432.992371,87.685837 
	C432.992371,81.496101 433.418488,75.043671 432.801697,68.692520 
	C432.519104,65.782639 430.842865,61.910805 428.579346,60.629997 
	C426.692566,59.562336 423.026184,61.639683 419.799042,62.805862 
	C419.229034,63.523640 419.092834,63.801331 419.041565,64.120689 
z"/>
<path fill="#F7FAFB" opacity="1.000000" stroke="none" 
	d="
M260.876251,86.044907 
	C260.522217,86.047821 260.252930,85.898186 259.942383,85.136078 
	C259.675964,84.377594 259.457245,84.156433 259.160248,84.012665 
	C259.160248,84.012665 259.001617,83.583557 258.909088,83.129852 
	C258.676239,82.377747 258.457703,82.156616 258.160980,82.012756 
	C258.160980,82.012756 258.002411,81.582085 257.909729,81.128326 
	C257.676575,80.377251 257.458435,80.156738 257.162659,80.013023 
	C257.106567,74.096596 257.157166,68.175537 256.900177,62.267849 
	C256.851532,61.149887 255.581375,60.085072 254.437515,58.550293 
	C254.665817,56.124733 255.331467,54.144627 255.997131,52.164516 
	C256.435883,48.904919 256.874664,45.645321 257.339935,42.188774 
	C260.411957,42.188774 263.504364,42.188774 266.823792,42.188774 
	C267.021118,45.418301 267.211121,48.527798 267.421326,51.967964 
	C270.336700,51.967964 273.432343,51.967964 276.763062,51.967964 
	C276.763062,54.356987 276.763062,56.429863 276.763062,58.889427 
	C273.673431,58.889427 270.593658,58.889427 267.011414,58.889427 
	C267.011414,64.860313 266.737152,70.484894 267.201599,76.047806 
	C267.319702,77.462524 269.584137,79.154655 271.229858,79.851913 
	C272.758728,80.499657 274.777893,79.990135 276.994965,79.990135 
	C276.994965,81.904449 276.994965,83.513359 276.624268,85.602959 
	C275.836700,86.668571 275.419800,87.253502 275.002869,87.838425 
	C274.264862,87.897911 273.526886,87.957390 272.210876,87.785812 
	C270.406036,87.743423 269.179230,87.932098 267.952423,88.120781 
	C267.209991,88.078346 266.467590,88.035904 265.279358,87.563416 
	C263.514465,86.770546 262.195343,86.407722 260.876251,86.044907 
z"/>
<path fill="#F7FAFB" opacity="1.000000" stroke="none" 
	d="
M48.872341,81.397690 
	C42.201611,77.270302 40.297058,72.822227 42.061501,65.828888 
	C42.985661,62.165985 49.016884,57.464642 53.387363,57.000370 
	C57.689598,56.543346 65.223129,61.343861 66.891525,65.605492 
	C68.354210,69.341682 65.548508,77.277252 62.098690,80.032013 
	C58.039337,83.273506 53.750065,83.431747 48.872341,81.397690 
z"/>
<path fill="#F7F9FA" opacity="1.000000" stroke="none" 
	d="
M177.003052,58.836941 
	C175.848801,58.932289 174.694550,59.027634 173.013580,59.166489 
	C173.013580,64.519493 172.648804,69.973930 173.226929,75.326523 
	C173.409897,77.020592 175.897476,78.822418 177.734741,79.856514 
	C178.972244,80.553032 180.919098,79.989212 182.836090,79.989212 
	C182.981476,82.636055 183.112747,85.026176 183.247818,87.485275 
	C171.879791,89.917503 164.977036,87.269333 164.239273,79.169937 
	C164.865234,72.468597 165.286530,66.419792 165.481995,60.363701 
	C165.495132,59.956821 163.801254,59.494854 162.901321,59.058506 
	C162.901321,59.058506 162.982422,59.019829 162.978180,58.657806 
	C162.648254,56.250122 162.322556,54.204464 161.996857,52.158806 
	C162.314026,51.951729 162.631165,51.744656 163.426025,51.207878 
	C164.601410,47.972462 165.299088,45.066742 165.996765,42.161022 
	C167.720901,42.109325 169.445023,42.057632 171.685379,42.261726 
	C172.365234,42.737633 172.576126,42.894020 172.834290,42.986668 
	C173.013214,45.891369 173.192139,48.796074 173.389740,52.003918 
	C174.609665,52.003918 175.898972,52.003918 177.600128,52.427521 
	C177.675674,54.846394 177.339371,56.841667 177.003052,58.836941 
z"/>
<path fill="#F7FAFB" opacity="1.000000" stroke="none" 
	d="
M314.951477,88.122833 
	C309.743073,88.296814 305.870758,86.636047 305.117981,80.143959 
	C304.884613,77.614197 304.522491,75.808670 304.160339,74.003151 
	C304.104034,69.751862 304.119965,65.497543 303.941803,61.251362 
	C303.895966,60.158535 303.239136,59.091335 302.382812,57.566048 
	C301.600708,55.466625 301.298859,53.813519 300.997009,52.160408 
	C301.956940,52.008072 302.916840,51.855743 303.099426,51.826767 
	C303.482178,48.453754 303.825409,45.428661 304.193024,42.188892 
	C306.677368,42.188892 309.108276,42.188892 311.928223,42.188892 
	C311.928223,45.369099 311.928223,48.469902 311.928223,52.004768 
	C313.908417,52.004768 315.512848,52.004768 317.559082,52.488365 
	C318.001526,54.594128 318.002197,56.216290 318.002869,57.838455 
	C316.201630,57.927563 314.400391,58.016666 312.014160,58.134712 
	C312.014160,64.581116 311.595703,71.138168 312.299042,77.572609 
	C312.482086,79.247032 316.165710,80.538818 318.621582,82.491348 
	C319.002136,84.597832 319.002563,86.219307 319.002991,87.840790 
	C318.569946,87.899605 318.136871,87.958420 317.226746,87.823540 
	C316.150299,87.794182 315.550873,87.958511 314.951477,88.122833 
z"/>
<path fill="#F7FAF9" opacity="1.000000" stroke="none" 
	d="
M194.996384,52.167484 
	C196.478760,52.102406 197.961151,52.037323 199.468826,51.971130 
	C199.317047,53.314648 199.184128,54.491123 199.164551,54.664429 
	C203.037872,53.518845 207.061691,52.328758 211.687134,50.960732 
	C211.687134,54.625980 211.687134,57.170948 211.687134,59.720646 
	C202.436478,60.446560 200.007980,63.187794 200.007324,72.799118 
	C200.006973,77.724182 200.007263,82.649254 200.007263,87.994034 
	C198.126389,87.994034 195.502914,87.994034 192.432571,87.540916 
	C191.990601,79.880066 191.939682,72.671715 192.020523,65.464836 
	C192.072388,60.842075 190.746414,55.867306 194.996384,52.167484 
z"/>
<path fill="#F8FBFA" opacity="1.000000" stroke="none" 
	d="
M292.009155,67.003647 
	C292.009216,74.119583 292.009216,80.736053 292.009216,87.679947 
	C289.790771,87.679947 287.725189,87.679947 285.323212,87.679947 
	C285.323212,76.118324 285.323212,64.290337 285.323212,52.228180 
	C287.370514,52.228180 289.434906,52.228180 292.009064,52.228180 
	C292.009064,56.990181 292.009064,61.747185 292.009155,67.003647 
z"/>
<path fill="#FEFEFE" opacity="1.000000" stroke="none" 
	d="
M361.490692,92.824402 
	C360.742371,91.351906 360.071381,89.662491 360.050323,87.965019 
	C359.941833,79.214439 359.889557,70.459679 360.055573,61.710896 
	C360.119965,58.316795 359.878082,55.239338 357.058350,52.527378 
	C358.476471,52.097958 359.949097,52.030357 361.867828,51.942284 
	C361.867828,65.609810 361.867828,79.106789 361.490692,92.824402 
z"/>
<path fill="#FDFEFE" opacity="1.000000" stroke="none" 
	d="
M194.552109,52.090767 
	C190.746414,55.867306 192.072388,60.842075 192.020523,65.464836 
	C191.939682,72.671715 191.990601,79.880066 191.991028,87.458275 
	C191.332916,87.244827 190.096786,86.666771 190.090744,86.076118 
	C189.975861,74.844612 190.005981,63.611626 190.005981,52.014053 
	C191.573486,52.014053 192.840668,52.014053 194.552109,52.090767 
z"/>
<path fill="#FEFEFE" opacity="1.000000" stroke="none" 
	d="
M64.825905,24.502563 
	C64.007530,25.251545 62.963219,25.954941 61.924583,25.946653 
	C53.120323,25.876404 44.317089,25.676451 35.230141,25.199076 
	C37.761772,24.588181 40.574146,24.076365 43.392368,24.041801 
	C50.461037,23.955112 57.532349,24.084402 64.825905,24.502563 
z"/>
<path fill="#FCFEFE" opacity="1.000000" stroke="none" 
	d="
M148.206696,67.584854 
	C146.913177,67.386421 145.708847,66.814224 144.152695,65.760620 
	C143.496216,63.533440 143.191589,61.787666 142.886963,60.041893 
	C143.865692,60.062702 145.160675,59.685825 145.770401,60.170673 
	C149.041565,62.771828 150.688660,60.364647 152.802155,58.100731 
	C153.665283,59.187279 154.222290,60.420536 154.863831,61.840969 
	C151.920547,62.397247 149.158554,62.919262 146.554138,63.411495 
	C150.867599,64.620972 150.867599,64.620972 148.206696,67.584854 
z"/>
<path fill="#FAFEFE" opacity="1.000000" stroke="none" 
	d="
M55.478310,86.945976 
	C55.528809,87.549019 55.086842,88.785858 54.711754,88.765892 
	C48.244858,88.421783 41.786198,87.922806 35.137756,87.172379 
	C35.491364,85.926826 35.954571,84.229584 36.591057,84.161888 
	C37.865543,84.026367 39.234840,84.782463 40.564995,85.170456 
	C40.211357,85.637047 39.857719,86.103638 39.182224,86.994881 
	C44.666271,86.994881 49.841618,86.994881 55.478310,86.945976 
z"/>
<path fill="#FCFDFE" opacity="1.000000" stroke="none" 
	d="
M378.916138,74.654907 
	C378.262146,74.501930 377.162354,73.974731 377.190491,73.516800 
	C377.382721,70.386330 377.811798,67.270401 378.649170,64.386292 
	C380.770966,64.706612 382.408173,64.790428 384.045349,64.874252 
	C383.156342,65.532234 382.267303,66.190216 381.275391,66.924362 
	C382.158569,68.673882 383.035980,70.411949 383.955261,72.493294 
	C382.328827,73.328629 380.660553,73.820694 378.916138,74.654907 
z"/>
<path fill="#FDFEFE" opacity="1.000000" stroke="none" 
	d="
M416.442413,87.913177 
	C416.335327,82.301826 416.609283,76.760986 417.035156,71.231834 
	C417.165161,69.543381 417.712616,67.887070 418.451996,66.109512 
	C418.889862,72.412292 419.030823,78.823303 418.904053,85.229012 
	C418.885590,86.161728 417.587708,87.069092 416.442413,87.913177 
z"/>
<path fill="#FDFEFE" opacity="1.000000" stroke="none" 
	d="
M290.231262,46.274521 
	C288.312347,45.710903 286.097839,45.228745 285.246429,43.883736 
	C284.749329,43.098396 286.157104,40.667583 287.269318,39.522385 
	C287.706482,39.072296 290.634247,39.903625 290.764038,40.508396 
	C291.135315,42.238842 290.654053,44.152214 290.231262,46.274521 
z"/>
<path fill="#FCFEFE" opacity="1.000000" stroke="none" 
	d="
M162.942551,59.454556 
	C163.801254,59.494854 165.495132,59.956821 165.481995,60.363701 
	C165.286530,66.419792 164.865234,72.468597 164.189667,78.785934 
	C163.582611,72.652031 163.283203,66.251320 162.942551,59.454556 
z"/>
<path fill="#FDFEFE" opacity="1.000000" stroke="none" 
	d="
M76.837799,57.512787 
	C71.332565,59.149330 72.193230,63.519279 72.169746,67.831284 
	C70.500229,64.646461 69.119545,61.238750 67.460579,57.144196 
	C70.923233,57.144196 73.775749,57.144196 76.837799,57.512787 
z"/>
<path fill="#FCFEFE" opacity="1.000000" stroke="none" 
	d="
M161.558014,52.084648 
	C162.322556,54.204464 162.648254,56.250122 162.957672,58.697769 
	C161.152390,59.099762 159.363388,59.099762 157.286377,59.099762 
	C157.286377,56.869083 157.286377,54.812550 157.286377,52.233368 
	C158.400650,52.168571 159.759918,52.089527 161.558014,52.084648 
z"/>
<path fill="#FCFDFD" opacity="1.000000" stroke="none" 
	d="
M177.444199,58.911980 
	C177.339371,56.841667 177.675674,54.846394 178.007446,52.506180 
	C179.468781,52.093102 180.934647,52.024960 182.703033,51.942753 
	C182.703033,54.242756 182.703033,56.428173 182.703033,58.987019 
	C181.060944,58.987019 179.473145,58.987019 177.444199,58.911980 
z"/>
<path fill="#FCFDFD" opacity="1.000000" stroke="none" 
	d="
M335.429382,86.681587 
	C340.227661,86.595436 345.288940,86.772438 350.548859,87.355652 
	C346.936523,89.524826 341.881775,87.761940 338.920654,91.933922 
	C338.920654,91.933922 338.952545,92.029007 338.988342,92.063683 
	C339.024109,90.988960 339.024109,89.879562 339.024109,88.208420 
	C338.376831,87.962914 337.034637,87.453827 335.429382,86.681587 
z"/>
<path fill="#FDFEFE" opacity="1.000000" stroke="none" 
	d="
M332.655151,95.166908 
	C334.611328,97.136421 336.089722,99.249016 337.891571,101.035378 
	C338.955139,102.089767 340.530914,102.627518 341.917267,103.758209 
	C338.335846,102.259109 334.687134,100.445023 331.167023,98.408630 
	C330.985779,98.303795 331.905945,96.295135 332.655151,95.166908 
z"/>
<path fill="#FDFEFE" opacity="1.000000" stroke="none" 
	d="
M300.593536,52.086060 
	C301.298859,53.813519 301.600708,55.466625 301.949738,57.478577 
	C301.025116,57.890266 299.860504,58.305168 299.125488,57.913616 
	C297.935394,57.279671 296.329315,56.241657 296.133423,55.152256 
	C295.583527,52.094574 297.879028,51.855793 300.593536,52.086060 
z"/>
<path fill="#FCFEFE" opacity="1.000000" stroke="none" 
	d="
M255.567596,52.088577 
	C255.331467,54.144627 254.665817,56.124733 253.998703,58.471809 
	C252.756897,58.838779 251.516541,58.838779 250.190002,58.838779 
	C250.598068,56.494129 250.961014,54.408798 251.378052,52.012642 
	C252.630005,52.012642 253.884033,52.012642 255.567596,52.088577 
z"/>
<path fill="#FCFEFE" opacity="1.000000" stroke="none" 
	d="
M31.164360,82.489784 
	C33.426750,81.109947 35.900837,80.101379 38.744804,79.025482 
	C39.872646,79.976547 40.630611,80.994934 42.019524,82.861053 
	C37.694183,82.861053 34.535122,82.861053 31.164360,82.489784 
z"/>
<path fill="#FEFEFE" opacity="1.000000" stroke="none" 
	d="
M99.488251,92.830811 
	C98.905762,88.865768 98.697495,84.685547 98.803085,80.226013 
	C99.365448,84.169678 99.613953,88.392654 99.488251,92.830811 
z"/>
<path fill="#FCFEFE" opacity="1.000000" stroke="none" 
	d="
M165.564972,42.086395 
	C165.299088,45.066742 164.601410,47.972462 163.531570,50.937492 
	C163.107727,48.568871 162.911682,46.129436 163.103531,43.720898 
	C163.152878,43.101231 164.423553,42.578846 165.564972,42.086395 
z"/>
<path fill="#FCFDFD" opacity="1.000000" stroke="none" 
	d="
M218.638123,56.021278 
	C219.941010,57.971832 220.924072,60.059715 221.952240,62.492439 
	C220.779053,62.559158 219.492859,62.440628 218.361038,61.959198 
	C217.167526,61.451523 216.121384,60.597450 215.010849,59.894714 
	C215.860184,59.237953 216.785522,58.655533 217.529175,57.895374 
	C217.947189,57.468067 218.065155,56.747219 218.638123,56.021278 
z"/>
<path fill="#FDFEFE" opacity="1.000000" stroke="none" 
	d="
M318.431763,57.913345 
	C318.002197,56.216290 318.001526,54.594128 318.001831,52.566589 
	C319.141327,52.097660 320.279816,52.034103 321.874268,51.945095 
	C321.075409,54.261066 324.733521,58.188057 318.431763,57.913345 
z"/>
<path fill="#FDFEFE" opacity="1.000000" stroke="none" 
	d="
M319.419800,87.914978 
	C319.002563,86.219307 319.002136,84.597832 319.002747,82.571167 
	C320.090698,81.684036 321.177521,81.202087 322.264374,80.720131 
	C320.147827,82.894295 324.609863,87.234489 319.419800,87.914978 
z"/>
<path fill="#FCFEFE" opacity="1.000000" stroke="none" 
	d="
M331.624451,56.031975 
	C330.588684,59.534473 329.221344,63.190895 327.506775,66.922134 
	C328.537292,63.393265 329.915100,59.789585 331.624451,56.031975 
z"/>
<path fill="#FEFEFE" opacity="1.000000" stroke="none" 
	d="
M29.631666,25.088917 
	C29.502686,27.998461 27.933804,28.508064 25.212700,27.088898 
	C26.348721,26.307108 27.808006,25.661156 29.631666,25.088917 
z"/>
<path fill="#FDFEFE" opacity="1.000000" stroke="none" 
	d="
M304.086029,74.410294 
	C304.522491,75.808670 304.884613,77.614197 305.099182,79.766068 
	C304.638306,78.347427 304.324982,76.582436 304.086029,74.410294 
z"/>
<path fill="#FCFDFD" opacity="1.000000" stroke="none" 
	d="
M227.630676,51.086178 
	C226.298569,51.977737 224.599747,52.795063 222.537842,53.395451 
	C223.871140,52.456322 225.567535,51.734131 227.630676,51.086178 
z"/>
<path fill="#FDFEFE" opacity="1.000000" stroke="none" 
	d="
M409.030609,85.318382 
	C410.084198,85.736099 411.004028,86.468765 411.960449,87.519409 
	C410.376007,87.929207 408.274872,88.696373 409.030609,85.318382 
z"/>
<path fill="#FAFEFE" opacity="1.000000" stroke="none" 
	d="
M61.648575,85.088120 
	C61.095024,85.908913 60.193226,86.652443 59.119217,87.143890 
	C57.212605,83.113426 60.712032,85.883240 61.648575,85.088120 
z"/>
<path fill="#FDFEFE" opacity="1.000000" stroke="none" 
	d="
M418.051270,53.583588 
	C417.071228,53.582222 416.041901,53.202805 415.007751,52.492844 
	C416.002594,52.510048 417.002258,52.857792 418.051270,53.583588 
z"/>
<path fill="#FCFDFE" opacity="1.000000" stroke="none" 
	d="
M268.101349,88.445435 
	C269.179230,87.932098 270.406036,87.743423 271.842468,87.835976 
	C270.784821,88.334831 269.517548,88.552460 268.101349,88.445435 
z"/>
<path fill="#FDFEFE" opacity="1.000000" stroke="none" 
	d="
M71.558212,72.095642 
	C71.851379,72.928268 71.824684,73.905403 71.479050,74.939514 
	C71.186195,74.077705 71.212273,73.158936 71.558212,72.095642 
z"/>
<path fill="#FCFDFE" opacity="1.000000" stroke="none" 
	d="
M261.021912,86.367203 
	C262.195343,86.407722 263.514465,86.770546 264.915253,87.484932 
	C263.720490,87.454163 262.444061,87.071838 261.021912,86.367203 
z"/>
<path fill="#FCFDFD" opacity="1.000000" stroke="none" 
	d="
M237.904190,51.557240 
	C237.072052,51.853413 236.095871,51.829361 235.061295,51.487350 
	C235.921982,51.191929 236.841064,51.214474 237.904190,51.557240 
z"/>
<path fill="#FDFEFE" opacity="1.000000" stroke="none" 
	d="
M315.056824,88.407883 
	C315.550873,87.958511 316.150299,87.794182 316.901031,87.874084 
	C316.422302,88.309860 315.792206,88.501389 315.056824,88.407883 
z"/>
<path fill="#FCFDFE" opacity="1.000000" stroke="none" 
	d="
M275.358887,87.911758 
	C275.419800,87.253502 275.836700,86.668571 276.546143,86.043327 
	C276.464111,86.663704 276.089508,87.324394 275.358887,87.911758 
z"/>
<path fill="#FCFEFE" opacity="1.000000" stroke="none" 
	d="
M328.115173,77.282021 
	C328.457275,77.156021 328.675842,77.376488 328.888428,77.899765 
	C328.663635,77.933762 328.366699,77.742401 328.115173,77.282021 
z"/>
<path fill="#FCFEFE" opacity="1.000000" stroke="none" 
	d="
M172.882477,42.721336 
	C172.576126,42.894020 172.365234,42.737633 172.110291,42.340469 
	C172.322861,42.260948 172.626770,42.358479 172.882477,42.721336 
z"/>
<path fill="#FCFEFE" opacity="1.000000" stroke="none" 
	d="
M327.113983,73.282120 
	C327.456421,73.155640 327.675415,73.376236 327.888153,73.900360 
	C327.663147,73.934525 327.366028,73.742966 327.113983,73.282120 
z"/>
<path fill="#FDFEFE" opacity="1.000000" stroke="none" 
	d="
M409.721375,52.114967 
	C409.895203,52.421612 409.738525,52.633633 409.339661,52.889854 
	C409.259705,52.677074 409.357483,52.372505 409.721375,52.114967 
z"/>
<path fill="#FEFEFE" opacity="1.000000" stroke="none" 
	d="
M93.033035,26.703720 
	C92.802765,26.904215 92.525261,26.767546 92.155212,26.355589 
	C92.329926,26.257833 92.637650,26.353252 93.033035,26.703720 
z"/>
<path fill="#FAFEFE" opacity="1.000000" stroke="none" 
	d="
M57.029694,86.691528 
	C56.920273,86.964394 56.717522,86.973686 56.210411,86.961746 
	C56.249481,86.769653 56.592918,86.598808 57.029694,86.691528 
z"/>
<path fill="#FDFEFE" opacity="1.000000" stroke="none" 
	d="
M70.700836,75.962906 
	C70.905212,76.194611 70.769096,76.473824 70.354172,76.845337 
	C70.255035,76.669846 70.350037,76.360771 70.700836,75.962906 
z"/>
<path fill="#FDFEFE" opacity="1.000000" stroke="none" 
	d="
M68.700821,78.962952 
	C68.905098,79.194832 68.768837,79.474014 68.353630,79.845291 
	C68.254570,79.669685 68.349777,79.360634 68.700821,78.962952 
z"/>
<path fill="#FCFDFE" opacity="1.000000" stroke="none" 
	d="
M259.114655,84.281845 
	C259.457245,84.156433 259.675964,84.377594 259.887848,84.902222 
	C259.662537,84.935860 259.365814,84.743439 259.114655,84.281845 
z"/>
<path fill="#FDFEFE" opacity="1.000000" stroke="none" 
	d="
M63.717571,84.115479 
	C63.844570,84.457001 63.624981,84.675461 63.103191,84.888962 
	C63.068672,84.664909 63.258671,84.367706 63.717571,84.115479 
z"/>
<path fill="#FEFEFE" opacity="1.000000" stroke="none" 
	d="
M91.037994,25.700743 
	C90.806786,25.903873 90.527161,25.767591 90.154892,25.353060 
	C90.330528,25.254047 90.639641,25.349554 91.037994,25.700743 
z"/>
<path fill="#FCFDFE" opacity="1.000000" stroke="none" 
	d="
M258.115204,82.281830 
	C258.457703,82.156616 258.676239,82.377747 258.887970,82.902069 
	C258.662750,82.935638 258.366089,82.743271 258.115204,82.281830 
z"/>
<path fill="#FCFEFE" opacity="1.000000" stroke="none" 
	d="
M330.112854,81.282036 
	C330.455139,81.154236 330.674652,81.373779 330.889130,81.896271 
	C330.663940,81.931473 330.365906,81.741531 330.112854,81.282036 
z"/>
<path fill="#FCFDFD" opacity="1.000000" stroke="none" 
	d="
M241.037750,52.699501 
	C240.804352,52.907093 240.524780,52.771065 240.153931,52.353287 
	C240.329803,52.253609 240.639465,52.348389 241.037750,52.699501 
z"/>
<path fill="#FCFDFE" opacity="1.000000" stroke="none" 
	d="
M257.116669,80.281754 
	C257.458435,80.156738 257.676575,80.377251 257.888794,80.899811 
	C257.663879,80.933540 257.367279,80.742012 257.116669,80.281754 
z"/>
<path fill="#FDFEFE" opacity="1.000000" stroke="none" 
	d="
M419.297607,64.033661 
	C419.092834,63.801331 419.229034,63.523640 419.643311,63.154312 
	C419.742188,63.329559 419.647919,63.638100 419.297607,64.033661 
z"/>
<path fill="#FCFEFE" opacity="1.000000" stroke="none" 
	d="
M329.114868,79.282211 
	C329.458771,79.157341 329.676941,79.379272 329.887268,79.905136 
	C329.661560,79.938148 329.364838,79.744804 329.114868,79.282211 
z"/>
<path fill="#000000" opacity="1.000000" stroke="none" 
	d="
M342.007935,79.480225 
	C336.372803,75.448418 336.598602,69.288010 338.516418,63.971050 
	C339.903259,60.126198 343.117371,60.052231 346.499420,59.961082 
	C350.474243,59.853954 352.229370,62.751698 352.611145,65.528496 
	C353.103149,69.106895 352.838318,73.154747 351.588715,76.512665 
	C350.099365,80.515068 346.021332,80.443527 342.007935,79.480225 
z"/>
<path fill="#000000" opacity="1.000000" stroke="none" 
	d="
M339.039520,92.302505 
	C341.881775,87.761940 346.936523,89.524826 350.931732,87.404800 
	C352.793121,90.270424 351.768890,93.245247 348.826385,94.403702 
	C345.653290,95.652931 341.837769,96.199692 339.039520,92.302505 
z"/>
<path fill="#000000" opacity="1.000000" stroke="none" 
	d="
M229.557541,73.167099 
	C232.130417,72.719566 234.315918,72.413490 236.498703,72.107788 
	C237.307770,77.695343 233.798233,81.585815 228.300522,80.886086 
	C226.798203,80.694870 225.464401,79.179550 224.053253,78.271881 
	C224.937714,77.102760 225.728760,75.843285 226.740540,74.797318 
	C227.380020,74.136238 228.348984,73.793861 229.557541,73.167099 
z"/>
<path fill="#000000" opacity="1.000000" stroke="none" 
	d="
M227.500534,61.014103 
	C231.618515,59.840141 235.595718,58.315174 237.596878,63.088856 
	C233.508896,63.738453 229.560257,64.365906 225.611633,64.993355 
	C225.471832,64.560684 225.332047,64.128021 225.192245,63.695351 
	C225.856918,62.884506 226.521591,62.073662 227.500534,61.014103 
z"/>
<path fill="#000000" opacity="1.000000" stroke="none" 
	d="
M384.464478,64.927887 
	C382.408173,64.790428 380.770966,64.706612 378.979492,64.312988 
	C382.032532,59.444153 385.996552,57.759121 391.474915,61.244781 
	C391.155548,62.788082 390.552307,63.833824 389.949066,64.879562 
	C388.260559,64.913544 386.572083,64.947540 384.464478,64.927887 
z"/>
<path fill="#FCFDFE" opacity="1.000000" stroke="none" 
	d="
M390.160828,65.162582 
	C390.552307,63.833824 391.155548,62.788082 391.820679,61.391068 
	C392.524597,62.056854 393.166626,63.073914 393.808624,64.090973 
	C392.663269,64.542519 391.517914,64.994057 390.160828,65.162582 
z"/>
<path fill="#000000" opacity="1.000000" stroke="none" 
	d="
M133.946014,73.044678 
	C137.154587,73.785652 140.430939,74.383377 143.618912,75.291405 
	C144.250443,75.471291 144.922104,76.862061 144.881729,77.659309 
	C144.843292,78.418205 144.054886,79.477150 143.325714,79.807953 
	C138.729187,81.893257 134.156693,78.873909 134.032593,73.357063 
	C134.051804,72.936951 133.982803,73.010284 133.946014,73.044678 
z"/>
<path fill="#000000" opacity="1.000000" stroke="none" 
	d="
M142.537598,60.022682 
	C143.191589,61.787666 143.496216,63.533440 143.840088,65.618332 
	C140.634125,64.798561 137.388931,63.639660 133.738358,62.335991 
	C134.673462,61.145657 135.532440,60.052216 135.913269,59.567459 
	C138.427643,59.742168 140.307938,59.872818 142.537598,60.022682 
z"/>
</svg>