<?xml version="1.0" encoding="UTF-8"?><svg id="Layer_1" xmlns="http://www.w3.org/2000/svg" viewBox="0 0 1409.26 500"><defs><style>.cls-1{fill:#0c0c0c;}</style></defs><circle class="cls-1" cx="248.99" cy="250" r="32.36"/><path class="cls-1" d="M201.63,250.13c-.07-26.37,21.98-47.5,48.35-47.5h82.49c19.94,0,36.1-16.16,36.1-36.1h0c0-19.94-16.16-36.1-36.1-36.1h-136.34c-36.84,0-66.7,29.86-66.7,66.7v18.53c0,36.84,29.86,66.7,66.7,66.7h15.02c1.26,0,1.94-1.46,1.15-2.43-6.63-8.13-10.63-18.49-10.66-29.79Z"/><path class="cls-1" d="M296.36,249.87c.07,26.13-22.22,47.5-48.35,47.5h-82.49c-19.94,0-36.1,16.16-36.1,36.1h0c0,19.94,16.16,36.1,36.1,36.1h136.34c36.84,0,66.7-29.86,66.7-66.7v-18.53c0-36.84-29.86-66.7-66.7-66.7h-15.02c-1.26,0-1.94,1.46-1.15,2.43,6.63,8.13,10.63,18.49,10.66,29.79Z"/><path class="cls-1" d="M502.84,246.74c-4.32-2.47-10.05-4.63-17.19-6.48-7.31-1.86-12.75-3.36-16.32-4.53-3.57-1.16-5.92-2.29-7.05-3.39-1.13-1.1-1.7-2.47-1.7-4.09,0-2.73,1.32-4.82,3.96-6.27,2.64-1.45,6.13-2.03,10.49-1.74,4.47.35,8.01,1.54,10.62,3.57,2.61,2.03,4.12,4.79,4.53,8.27l24.19-4.35c-.81-5.68-2.97-10.62-6.48-14.79-3.51-4.18-8.11-7.4-13.79-9.66-5.69-2.26-12.21-3.39-19.58-3.39s-14.2,1.21-19.8,3.61c-5.6,2.41-9.94,5.83-13.01,10.27-3.08,4.44-4.61,9.68-4.61,15.71,0,4.82,1.01,8.92,3.04,12.31,2.03,3.39,5.34,6.31,9.92,8.75,4.58,2.44,10.7,4.64,18.36,6.61,6.79,1.8,11.79,3.25,15.01,4.35,3.22,1.1,5.29,2.22,6.22,3.35.93,1.13,1.39,2.63,1.39,4.48,0,2.96-1.16,5.26-3.48,6.92-2.32,1.65-5.63,2.48-9.92,2.48-5.22,0-9.53-1.25-12.92-3.74-3.39-2.49-5.58-5.95-6.57-10.36l-24.19,3.65c1.57,9.81,5.99,17.39,13.27,22.76,7.28,5.37,16.84,8.05,28.67,8.05s21.93-2.75,28.89-8.27c6.96-5.51,10.44-13.08,10.44-22.71,0-4.87-.99-9.04-2.96-12.49-1.97-3.45-5.12-6.41-9.44-8.88Z"/><path class="cls-1" d="M563.63,176.38h-23.67v26.11h-16.01v18.28h16.01v35.85c0,5.63.06,10.66.17,15.1.11,4.44,1.33,8.8,3.65,13.1,2.55,4.58,6.28,7.91,11.18,9.96,4.9,2.06,10.47,3.16,16.71,3.31,6.24.15,12.6-.39,19.1-1.61v-19.67c-5.57.76-10.65.99-15.23.7-4.58-.29-7.92-2.09-10.01-5.4-1.1-1.74-1.7-4.08-1.78-7.01-.09-2.93-.13-6.22-.13-9.88v-34.46h27.15v-18.28h-27.15v-26.11Z"/><path class="cls-1" d="M658.31,202.27c-2.84.2-5.6.7-8.27,1.48-2.67.78-5.14,1.87-7.4,3.26-2.96,1.74-5.45,3.95-7.49,6.61-.96,1.27-1.83,2.61-2.61,4v-15.14h-20.89v93.99h23.85v-48.04c0-3.6.49-6.83,1.48-9.7.99-2.87,2.44-5.37,4.35-7.48,1.91-2.12,4.26-3.81,7.05-5.09,2.79-1.33,5.9-2.13,9.36-2.39,3.45-.26,6.48.01,9.09.83v-22.1c-2.84-.35-5.69-.42-8.53-.22Z"/><path class="cls-1" d="M756.65,216.94c-3.31-6.27-8.18-10.67-14.62-13.23-6.44-2.55-13.81-3.83-22.1-3.83-11.31,0-20.25,2.44-26.8,7.31-6.56,4.87-11.02,11.2-13.4,18.97l21.41,6.79c1.51-4.29,4.15-7.28,7.92-8.96,3.77-1.68,7.4-2.52,10.88-2.52,6.27,0,10.73,1.31,13.4,3.92,2.09,2.05,3.35,5.02,3.8,8.88-3.99.6-7.8,1.16-11.38,1.69-6.09.9-11.55,1.84-16.36,2.83-4.82.99-8.96,2.12-12.44,3.39-5.05,1.86-9.07,4.16-12.05,6.92-2.99,2.76-5.15,5.93-6.48,9.53-1.34,3.6-2,7.57-2,11.92,0,5.22,1.2,9.99,3.61,14.32,2.41,4.32,5.95,7.78,10.62,10.36,4.67,2.58,10.37,3.87,17.1,3.87,8.12,0,14.84-1.41,20.15-4.22,4.19-2.22,8.14-5.55,11.88-9.95v11.56h20.71v-57.44c0-4.29-.17-8.18-.52-11.66-.35-3.48-1.45-6.96-3.31-10.44ZM734.54,267.93c-.64,1.34-1.84,2.99-3.61,4.96-1.77,1.97-4.15,3.73-7.14,5.26-2.99,1.54-6.66,2.31-11.01,2.31-2.73,0-5.08-.41-7.05-1.22-1.97-.81-3.5-1.99-4.57-3.52-1.07-1.54-1.61-3.38-1.61-5.53,0-1.57.33-2.99,1-4.26.67-1.28,1.71-2.45,3.13-3.52,1.42-1.07,3.29-2.07,5.61-3,2.03-.75,4.38-1.45,7.05-2.09,2.67-.64,6.18-1.35,10.53-2.13,2.79-.5,6.15-1.09,10.04-1.74-.05,1.65-.13,3.49-.25,5.57-.2,3.39-.91,6.37-2.13,8.92Z"/><path class="cls-1" d="M812.34,176.38h-23.67v26.11h-16.01v18.28h16.01v35.85c0,5.63.06,10.66.17,15.1.11,4.44,1.33,8.8,3.65,13.1,2.55,4.58,6.28,7.91,11.18,9.96,4.9,2.06,10.47,3.16,16.71,3.31,6.24.15,12.6-.39,19.1-1.61v-19.67c-5.57.76-10.65.99-15.23.7-4.58-.29-7.92-2.09-10.01-5.4-1.1-1.74-1.7-4.08-1.78-7.01-.09-2.93-.13-6.22-.13-9.88v-34.46h27.15v-18.28h-27.15v-26.11Z"/><rect class="cls-1" x="862.12" y="202.49" width="18.19" height="93.99"/><rect class="cls-1" x="862.12" y="169.42" width="18.19" height="17.67" rx="8.83" ry="8.83"/><path class="cls-1" d="M932.26,176.38h-18.28v26.11h-18.01v14.62h18.01v42.38c0,5.11.07,9.68.22,13.71.14,4.03,1.23,7.99,3.26,11.88,2.26,4.35,5.63,7.54,10.09,9.57,4.47,2.03,9.54,3.13,15.23,3.31,5.68.17,11.49-.32,17.4-1.48v-15.4c-6.15.87-11.5,1.06-16.06.57-4.56-.49-7.88-2.54-9.97-6.13-1.1-1.91-1.7-4.26-1.78-7.05-.09-2.79-.13-6.06-.13-9.83v-41.51h27.94v-14.62h-27.94v-26.11Z"/><path class="cls-1" d="M1043.48,207.68c-.54-.43-1.09-.87-1.65-1.27-6.09-4.35-13.61-6.53-22.54-6.53s-16.83,2.15-23.5,6.44c-6.67,4.3-11.85,10.17-15.53,17.62-3.69,7.46-5.53,15.97-5.53,25.54s1.81,17.84,5.44,25.33c3.63,7.48,8.69,13.4,15.19,17.75,6.5,4.35,14.07,6.53,22.71,6.53s16.35-1.99,22.45-5.92v9.4c.12,3.48-.77,6.4-2.65,8.75-1.89,2.35-4.39,4.12-7.53,5.31-3.13,1.19-6.47,1.78-10.01,1.78-3.31,0-6.37-.73-9.18-2.18-2.81-1.45-4.98-3.57-6.48-6.35l-21.93,10.62c2.38,4.06,5.47,7.62,9.27,10.66,3.8,3.04,8.11,5.42,12.92,7.14,4.81,1.71,9.89,2.57,15.23,2.57,6.9,0,13.31-.91,19.23-2.74,5.92-1.83,10.92-4.6,15.01-8.31,4.09-3.71,6.89-8.44,8.4-14.18.52-2.03.88-4.08,1.09-6.14.2-2.06.3-4.25.3-6.57v-100.43h-20.71v5.19ZM1034.56,274.46c-3.16,2.38-7.38,3.57-12.66,3.57s-9.28-1.28-12.53-3.83c-3.25-2.55-5.66-5.99-7.22-10.31-1.57-4.32-2.35-9.12-2.35-14.4s.81-9.99,2.44-14.32c1.62-4.32,4.13-7.77,7.53-10.36,3.4-2.58,7.73-3.87,13.01-3.87,4.93,0,8.92,1.19,11.97,3.57,3.04,2.38,5.26,5.72,6.66,10.01,1.39,4.29,2.09,9.28,2.09,14.97s-.7,10.68-2.09,14.97c-1.39,4.29-3.67,7.63-6.83,10.01Z"/><path class="cls-1" d="M1156,206.84c-6.9-4.64-15.29-6.96-25.15-6.96-9.28,0-17.49,2.1-24.63,6.31-7.14,4.21-12.74,10.11-16.8,17.71-4.06,7.6-6.09,16.54-6.09,26.8,0,9.4,2.07,17.74,6.22,25.02,4.15,7.28,9.89,13,17.23,17.14,7.34,4.15,15.82,6.22,25.45,6.22,9.05,0,17.39-2.38,25.02-7.14,7.63-4.76,13.21-11.43,16.75-20.02l-23.67-6.79c-1.74,3.83-4.26,6.76-7.57,8.79-3.31,2.03-7.28,3.05-11.92,3.05-7.37,0-12.95-2.39-16.75-7.18-2.78-3.5-4.53-8.08-5.28-13.71h65.98c.98-11.37-.17-21.26-3.48-29.68-3.31-8.41-8.41-14.94-15.32-19.58ZM1131.9,220.42c6.9,0,11.88,2.1,14.92,6.31,2,2.76,3.33,6.71,4.02,11.79h-41.38c.93-4.34,2.46-7.94,4.64-10.75,3.8-4.9,9.73-7.35,17.8-7.35Z"/><path class="cls-1" d="M1279.49,236.26c-.23-3.42-.9-7.21-2-11.36-1.1-4.15-2.95-8.14-5.52-11.97-2.58-3.83-6.2-6.99-10.84-9.49-4.64-2.49-10.65-3.74-18.01-3.74-9.23,0-16.87,2-22.93,6.01-2.85,1.88-5.35,4.05-7.53,6.48v-9.7h-21.06v93.99h24.02v-47.69c0-5.86.65-10.56,1.96-14.1,1.31-3.54,2.97-6.22,5-8.05,2.03-1.83,4.21-3.06,6.53-3.7,2.32-.64,4.49-.96,6.53-.96,5.05,0,8.95,1.13,11.71,3.4,2.75,2.26,4.74,5.08,5.96,8.44,1.22,3.37,1.94,6.72,2.18,10.05.23,3.34.35,6.08.35,8.22v44.38h24.02v-52.74c0-1.57-.12-4.06-.35-7.49Z"/></svg>